<svg width="53" height="50" viewBox="0 0 53 50" fill="none" xmlns="http://www.w3.org/2000/svg">
<path d="M28.4021 3.09017L32.3966 15.384C32.9321 17.0321 34.4679 18.1479 36.2008 18.1479H49.1273C51.0648 18.1479 51.8703 20.6272 50.3029 21.766L39.8452 29.364C38.4432 30.3825 37.8566 32.188 38.3921 33.8361L42.3866 46.1299C42.9853 47.9726 40.8763 49.5048 39.3089 48.366L28.8511 40.768C27.4492 39.7494 25.5508 39.7494 24.1489 40.768L13.6911 48.366C12.1237 49.5048 10.0147 47.9726 10.6134 46.1299L14.6079 33.8361C15.1434 32.188 14.5568 30.3825 13.1548 29.364L2.69708 21.766C1.12966 20.6272 1.93521 18.1479 3.87266 18.1479H16.7992C18.5321 18.1479 20.0679 17.0321 20.6034 15.384L24.5979 3.09017C25.1966 1.24755 27.8034 1.24755 28.4021 3.09017Z" fill="#0087CC" stroke="white" stroke-width="2"/>
</svg>
