<?xml version="1.0" encoding="UTF-8"?>
<!DOCTYPE svg PUBLIC "-//W3C//DTD SVG 1.1//EN" "http://www.w3.org/Graphics/SVG/1.1/DTD/svg11.dtd">
<svg xmlns="http://www.w3.org/2000/svg" version="1.1" width="369px" height="350px" style="shape-rendering:geometricPrecision; text-rendering:geometricPrecision; image-rendering:optimizeQuality; fill-rule:evenodd; clip-rule:evenodd" xmlns:xlink="http://www.w3.org/1999/xlink">
<g><path style="opacity:0.908" fill="#fefdfd" d="M 101.5,-0.5 C 111.833,-0.5 122.167,-0.5 132.5,-0.5C 151.054,2.76865 168.388,9.43531 184.5,19.5C 200.612,9.43531 217.946,2.76865 236.5,-0.5C 246.833,-0.5 257.167,-0.5 267.5,-0.5C 323.5,10.8333 357.167,44.5 368.5,100.5C 368.5,110.833 368.5,121.167 368.5,131.5C 364.883,153.739 356.05,173.739 342,191.5C 289.605,244.395 237.105,297.061 184.5,349.5C 184.167,349.5 183.833,349.5 183.5,349.5C 131.84,297.007 79.6737,245.007 27,193.5C 12.3685,175.575 3.20179,155.241 -0.5,132.5C -0.5,122.167 -0.5,111.833 -0.5,101.5C 7.94249,55.8804 33.6092,24.0471 76.5,6C 84.8385,3.33329 93.1718,1.16662 101.5,-0.5 Z"/></g>
<g><path style="opacity:1" fill="#e21818" d="M 249.5,9.5 C 294.028,11.1707 326.862,31.504 348,70.5C 365.087,111.497 360.087,149.497 333,184.5C 283.749,234.752 234.082,284.752 184,334.5C 132.61,283.777 81.9434,232.444 32,180.5C 7.64627,144.587 4.64627,106.92 23,67.5C 54.4473,17.4568 98.614,0.956767 155.5,18C 163.32,21.1634 170.653,25.1634 177.5,30C 181.5,32 185.5,32 189.5,30C 207.63,17.4571 227.63,10.6237 249.5,9.5 Z"/></g>
</svg>
