<?xml version="1.0" encoding="UTF-8"?>
<!DOCTYPE svg PUBLIC "-//W3C//DTD SVG 1.1//EN" "http://www.w3.org/Graphics/SVG/1.1/DTD/svg11.dtd">
<svg xmlns="http://www.w3.org/2000/svg" version="1.1" width="28px" height="27px" style="shape-rendering:geometricPrecision; text-rendering:geometricPrecision; image-rendering:optimizeQuality; fill-rule:evenodd; clip-rule:evenodd" xmlns:xlink="http://www.w3.org/1999/xlink">
<g><path style="opacity:0.023" fill="#3d3d3d" d="M 4.5,-0.5 C 6.83333,-0.5 9.16667,-0.5 11.5,-0.5C 11.5,-0.166667 11.5,0.166667 11.5,0.5C 7.23292,1.76842 4.23292,4.43509 2.5,8.5C 1.83333,8.5 1.5,8.83333 1.5,9.5C 0.833333,12.1667 0.166667,14.8333 -0.5,17.5C -0.5,13.1667 -0.5,8.83333 -0.5,4.5C 1.16667,2.83333 2.83333,1.16667 4.5,-0.5 Z"/></g>
<g><path style="opacity:0.026" fill="#3f403f" d="M 11.5,0.5 C 11.5,0.166667 11.5,-0.166667 11.5,-0.5C 15.1667,-0.5 18.8333,-0.5 22.5,-0.5C 24.1667,1.16667 25.8333,2.83333 27.5,4.5C 27.5,8.16667 27.5,11.8333 27.5,15.5C 27.1667,15.5 26.8333,15.5 26.5,15.5C 26.8893,12.4467 26.2227,9.78003 24.5,7.5C 21.4688,2.81676 17.1355,0.483423 11.5,0.5 Z"/></g>
<g><path style="opacity:1" fill="#af98cb" d="M 10.5,3.5 C 13.9329,2.12413 17.2662,2.62413 20.5,5C 22.16,6.48765 23.16,8.32099 23.5,10.5C 21.4017,9.0857 20.4017,9.75236 20.5,12.5C 19.6618,12.1583 19.3284,11.4916 19.5,10.5C 19.8333,6.16667 17.8333,4.16667 13.5,4.5C 12.791,3.59603 11.791,3.26269 10.5,3.5 Z"/></g>
<g><path style="opacity:0.992" fill="#dbd8de" d="M 11.5,0.5 C 17.1355,0.483423 21.4688,2.81676 24.5,7.5C 24.5,8.5 24.5,9.5 24.5,10.5C 24.1667,10.5 23.8333,10.5 23.5,10.5C 23.16,8.32099 22.16,6.48765 20.5,5C 17.2662,2.62413 13.9329,2.12413 10.5,3.5C 6.80161,5.19833 4.13495,7.86499 2.5,11.5C 2.5,10.5 2.5,9.5 2.5,8.5C 4.23292,4.43509 7.23292,1.76842 11.5,0.5 Z"/></g>
<g><path style="opacity:1" fill="#e9e5ef" d="M 13.5,4.5 C 17.8333,4.16667 19.8333,6.16667 19.5,10.5C 17.6214,10.6068 17.2881,10.1068 18.5,9C 17.3474,7.11699 15.6807,6.28366 13.5,6.5C 12.8333,13.1667 12.1667,13.1667 11.5,6.5C 11.8333,5.5 12.5,4.83333 13.5,4.5 Z"/></g>
<g><path style="opacity:1" fill="#bb9fde" d="M 10.5,3.5 C 11.791,3.26269 12.791,3.59603 13.5,4.5C 12.5,4.83333 11.8333,5.5 11.5,6.5C 11.1667,6.5 10.8333,6.5 10.5,6.5C 10.631,5.76109 10.4643,5.09442 10,4.5C 5.90888,7.07808 3.74221,10.7447 3.5,15.5C 2.56552,14.4324 2.23219,13.099 2.5,11.5C 4.13495,7.86499 6.80161,5.19833 10.5,3.5 Z"/></g>
<g><path style="opacity:1" fill="#cec1da" d="M 10.5,6.5 C 10.8333,6.5 11.1667,6.5 11.5,6.5C 12.1667,13.1667 12.8333,13.1667 13.5,6.5C 15.6807,6.28366 17.3474,7.11699 18.5,9C 17.2881,10.1068 17.6214,10.6068 19.5,10.5C 19.3284,11.4916 19.6618,12.1583 20.5,12.5C 20.5,13.1667 20.5,13.8333 20.5,14.5C 16.5841,12.7372 14.9174,14.0706 15.5,18.5C 14.091,19.508 14.091,17.6746 15.5,13C 14.552,12.5172 13.552,12.3505 12.5,12.5C 12.6646,15.5184 12.498,18.5184 12,21.5C 11.7216,20.5842 11.2216,19.9175 10.5,19.5C 8.6203,19.7709 7.28696,19.1042 6.5,17.5C 5.59853,13.7593 6.93186,11.7593 10.5,11.5C 10.5,9.83333 10.5,8.16667 10.5,6.5 Z"/></g>
<g><path style="opacity:1" fill="#b389d9" d="M 23.5,10.5 C 23.9321,13.8774 23.2655,16.8774 21.5,19.5C 21.5,18.8333 21.1667,18.5 20.5,18.5C 20.5,17.1667 20.5,15.8333 20.5,14.5C 20.5,13.8333 20.5,13.1667 20.5,12.5C 20.4017,9.75236 21.4017,9.0857 23.5,10.5 Z"/></g>
<g><path style="opacity:0.933" fill="#aeafae" d="M 24.5,7.5 C 26.2227,9.78003 26.8893,12.4467 26.5,15.5C 25.8333,16.1667 25.1667,16.8333 24.5,17.5C 24.5,15.1667 24.5,12.8333 24.5,10.5C 24.5,9.5 24.5,8.5 24.5,7.5 Z"/></g>
<g><path style="opacity:1" fill="#c29be7" d="M 10.5,6.5 C 10.5,8.16667 10.5,9.83333 10.5,11.5C 6.93186,11.7593 5.59853,13.7593 6.5,17.5C 5.71003,16.3915 5.21003,15.0581 5,13.5C 4.50999,14.7932 4.34332,16.1266 4.5,17.5C 3.66175,17.1583 3.32842,16.4916 3.5,15.5C 3.74221,10.7447 5.90888,7.07808 10,4.5C 10.4643,5.09442 10.631,5.76109 10.5,6.5 Z"/></g>
<g><path style="opacity:0.038" fill="#434443" d="M 26.5,15.5 C 26.8333,15.5 27.1667,15.5 27.5,15.5C 27.5,17.5 27.5,19.5 27.5,21.5C 24.7173,25.0083 21.0506,26.3417 16.5,25.5C 20.4499,24.1781 23.1166,21.5114 24.5,17.5C 25.1667,16.8333 25.8333,16.1667 26.5,15.5 Z"/></g>
<g><path style="opacity:0.969" fill="#dfdbe1" d="M 2.5,8.5 C 2.5,9.5 2.5,10.5 2.5,11.5C 2.23219,13.099 2.56552,14.4324 3.5,15.5C 3.32842,16.4916 3.66175,17.1583 4.5,17.5C 5.16667,20.1667 6.83333,21.8333 9.5,22.5C 9.5,22.8333 9.5,23.1667 9.5,23.5C 8.83333,23.5 8.16667,23.5 7.5,23.5C 2.61126,20.1924 0.611264,15.5257 1.5,9.5C 1.5,8.83333 1.83333,8.5 2.5,8.5 Z"/></g>
<g><path style="opacity:1" fill="#c2add3" d="M 20.5,14.5 C 20.5,15.8333 20.5,17.1667 20.5,18.5C 20.1667,18.5 19.8333,18.5 19.5,18.5C 18.1667,18.5 16.8333,18.5 15.5,18.5C 14.9174,14.0706 16.5841,12.7372 20.5,14.5 Z"/></g>
<g><path style="opacity:0.033" fill="#494a49" d="M 1.5,9.5 C 0.611264,15.5257 2.61126,20.1924 7.5,23.5C 7.83333,24.1667 8.16667,24.8333 8.5,25.5C 6.39605,25.7989 4.39605,25.4656 2.5,24.5C 1.81181,23.1451 0.811806,22.1451 -0.5,21.5C -0.5,20.1667 -0.5,18.8333 -0.5,17.5C 0.166667,14.8333 0.833333,12.1667 1.5,9.5 Z"/></g>
<g><path style="opacity:1" fill="#9a56c3" d="M 6.5,17.5 C 7.28696,19.1042 8.6203,19.7709 10.5,19.5C 10.7373,20.791 10.404,21.791 9.5,22.5C 6.83333,21.8333 5.16667,20.1667 4.5,17.5C 4.34332,16.1266 4.50999,14.7932 5,13.5C 5.21003,15.0581 5.71003,16.3915 6.5,17.5 Z"/></g>
<g><path style="opacity:1" fill="#984cbf" d="M 19.5,18.5 C 19.8333,18.5 20.1667,18.5 20.5,18.5C 21.1667,18.5 21.5,18.8333 21.5,19.5C 20.5637,20.9744 19.2303,21.9744 17.5,22.5C 16.596,21.791 16.2627,20.791 16.5,19.5C 17.791,19.7373 18.791,19.404 19.5,18.5 Z"/></g>
<g><path style="opacity:1" fill="#ac90be" d="M 15.5,18.5 C 16.8333,18.5 18.1667,18.5 19.5,18.5C 18.791,19.404 17.791,19.7373 16.5,19.5C 16.2627,20.791 16.596,21.791 17.5,22.5C 15.0521,23.4731 12.3854,23.8064 9.5,23.5C 9.5,23.1667 9.5,22.8333 9.5,22.5C 10.404,21.791 10.7373,20.791 10.5,19.5C 11.2216,19.9175 11.7216,20.5842 12,21.5C 12.498,18.5184 12.6646,15.5184 12.5,12.5C 13.552,12.3505 14.552,12.5172 15.5,13C 14.091,17.6746 14.091,19.508 15.5,18.5 Z"/></g>
<g><path style="opacity:0.925" fill="#d2cbd4" d="M 23.5,10.5 C 23.8333,10.5 24.1667,10.5 24.5,10.5C 24.5,12.8333 24.5,15.1667 24.5,17.5C 23.1166,21.5114 20.4499,24.1781 16.5,25.5C 13.8333,25.5 11.1667,25.5 8.5,25.5C 8.16667,24.8333 7.83333,24.1667 7.5,23.5C 8.16667,23.5 8.83333,23.5 9.5,23.5C 12.3854,23.8064 15.0521,23.4731 17.5,22.5C 19.2303,21.9744 20.5637,20.9744 21.5,19.5C 23.2655,16.8774 23.9321,13.8774 23.5,10.5 Z"/></g>
</svg>
