<?xml version="1.0" encoding="UTF-8"?>
<!DOCTYPE svg PUBLIC "-//W3C//DTD SVG 1.1//EN" "http://www.w3.org/Graphics/SVG/1.1/DTD/svg11.dtd">
<svg xmlns="http://www.w3.org/2000/svg" version="1.1" width="23px" height="19px" style="shape-rendering:geometricPrecision; text-rendering:geometricPrecision; image-rendering:optimizeQuality; fill-rule:evenodd; clip-rule:evenodd" xmlns:xlink="http://www.w3.org/1999/xlink">
<g><path style="opacity:0.341" fill="#5d5c53" d="M 9.5,-0.5 C 10.1667,-0.5 10.8333,-0.5 11.5,-0.5C 11.5,0.833333 11.5,2.16667 11.5,3.5C 10.8333,3.5 10.1667,3.5 9.5,3.5C 9.5,2.16667 9.5,0.833333 9.5,-0.5 Z"/></g>
<g><path style="opacity:0.047" fill="#fe0908" d="M 22.5,1.5 C 22.5,2.16667 22.5,2.83333 22.5,3.5C 18.5,2.83333 18.5,2.16667 22.5,1.5 Z"/></g>
<g><path style="opacity:0.224" fill="#4b4a40" d="M 19.5,10.5 C 19.6309,9.62356 19.2975,8.95689 18.5,8.5C 17.549,9.32557 16.549,9.49224 15.5,9C 16.5536,7.61238 16.7203,6.11238 16,4.5C 15.6174,5.05596 15.1174,5.38929 14.5,5.5C 14.8338,2.72522 16.1671,2.05855 18.5,3.5C 18.0688,4.29349 17.7355,5.12682 17.5,6C 19.037,6.38302 20.3703,7.21636 21.5,8.5C 21.1445,9.5223 20.4778,10.189 19.5,10.5 Z"/></g>
<g><path style="opacity:0.749" fill="#ababa7" d="M 6.5,5.5 C 6.5,5.83333 6.5,6.16667 6.5,6.5C 5.76712,8.29439 4.76712,9.96106 3.5,11.5C 2.83333,11.1667 2.16667,10.8333 1.5,10.5C 1.70575,8.45079 2.53908,8.11746 4,9.5C 4.33333,7.83333 4.66667,6.16667 5,4.5C 5.38258,5.05596 5.88258,5.38929 6.5,5.5 Z"/></g>
<g><path style="opacity:0.11" fill="#47463c" d="M 6.5,5.5 C 5.88258,5.38929 5.38258,5.05596 5,4.5C 4.66667,6.16667 4.33333,7.83333 4,9.5C 2.53908,8.11746 1.70575,8.45079 1.5,10.5C 0.833333,10.1667 0.166667,9.83333 -0.5,9.5C -0.5,8.83333 -0.5,8.16667 -0.5,7.5C 0.472826,6.20859 1.47283,6.20859 2.5,7.5C 3.64464,6.2243 3.64464,4.89097 2.5,3.5C 4.83291,2.05855 6.16625,2.72522 6.5,5.5 Z"/></g>
<g><path style="opacity:0.999" fill="#d4d3d2" d="M 6.5,6.5 C 6.97306,7.90632 7.97306,8.57298 9.5,8.5C 9.5,9.83333 9.5,11.1667 9.5,12.5C 5.47837,12.6894 5.47837,14.0228 9.5,16.5C 10.5676,17.4345 11.901,17.7678 13.5,17.5C 13.5,17.8333 13.5,18.1667 13.5,18.5C 11.5,18.5 9.5,18.5 7.5,18.5C 7.5,18.1667 7.5,17.8333 7.5,17.5C 7.02694,16.0937 6.02694,15.427 4.5,15.5C 4.16667,14.1667 3.83333,12.8333 3.5,11.5C 4.76712,9.96106 5.76712,8.29439 6.5,6.5 Z"/></g>
<g><path style="opacity:0.149" fill="#525147" d="M 9.5,3.5 C 9.5,4.5 9.5,5.5 9.5,6.5C 9.5,7.16667 9.5,7.83333 9.5,8.5C 7.97306,8.57298 6.97306,7.90632 6.5,6.5C 6.5,6.16667 6.5,5.83333 6.5,5.5C 7.11742,5.61071 7.61742,5.94404 8,6.5C 8.23209,5.26253 8.73209,4.26253 9.5,3.5 Z"/></g>
<g><path style="opacity:0.867" fill="#b9b9b6" d="M 9.5,3.5 C 10.1667,3.5 10.8333,3.5 11.5,3.5C 11.5,5.16667 11.5,6.83333 11.5,8.5C 10.8333,7.83333 10.1667,7.16667 9.5,6.5C 9.5,5.5 9.5,4.5 9.5,3.5 Z"/></g>
<g><path style="opacity:0.184" fill="#545349" d="M 11.5,3.5 C 12.2679,4.26253 12.7679,5.26253 13,6.5C 13.3826,5.94404 13.8826,5.61071 14.5,5.5C 14.5,7.5 13.5,8.5 11.5,8.5C 11.5,6.83333 11.5,5.16667 11.5,3.5 Z"/></g>
<g><path style="opacity:0.994" fill="#c3c3c0" d="M 19.5,10.5 C 18.8333,10.8333 18.1667,11.1667 17.5,11.5C 15.9561,10.086 14.2894,9.75262 12.5,10.5C 11.7025,10.0431 11.3691,9.37644 11.5,8.5C 13.5,8.5 14.5,7.5 14.5,5.5C 15.1174,5.38929 15.6174,5.05596 16,4.5C 16.7203,6.11238 16.5536,7.61238 15.5,9C 16.549,9.49224 17.549,9.32557 18.5,8.5C 19.2975,8.95689 19.6309,9.62356 19.5,10.5 Z"/></g>
<g><path style="opacity:0.999" fill="#e6e6e6" d="M 9.5,6.5 C 10.1667,7.16667 10.8333,7.83333 11.5,8.5C 11.3691,9.37644 11.7025,10.0431 12.5,10.5C 14.2894,9.75262 15.9561,10.086 17.5,11.5C 16.5849,13.7541 15.2516,15.7541 13.5,17.5C 11.901,17.7678 10.5676,17.4345 9.5,16.5C 14.7572,15.3037 14.7572,13.9704 9.5,12.5C 9.5,11.1667 9.5,9.83333 9.5,8.5C 9.5,7.83333 9.5,7.16667 9.5,6.5 Z"/></g>
<g><path style="opacity:0.224" fill="#58574d" d="M 1.5,10.5 C 2.16667,10.8333 2.83333,11.1667 3.5,11.5C 3.83333,12.8333 4.16667,14.1667 4.5,15.5C 2.74973,14.3406 1.74973,12.674 1.5,10.5 Z"/></g>
<g><path style="opacity:1" fill="#f7f7f7" d="M 9.5,12.5 C 14.7572,13.9704 14.7572,15.3037 9.5,16.5C 5.47837,14.0228 5.47837,12.6894 9.5,12.5 Z"/></g>
<g><path style="opacity:0.176" fill="#56554b" d="M 19.5,10.5 C 18.9078,14.0889 16.9078,16.4222 13.5,17.5C 15.2516,15.7541 16.5849,13.7541 17.5,11.5C 18.1667,11.1667 18.8333,10.8333 19.5,10.5 Z"/></g>
<g><path style="opacity:0.494" fill="#7e7d77" d="M 4.5,15.5 C 6.02694,15.427 7.02694,16.0937 7.5,17.5C 5.97306,17.573 4.97306,16.9063 4.5,15.5 Z"/></g>
</svg>
