<?xml version="1.0" encoding="UTF-8"?>
<!DOCTYPE svg PUBLIC "-//W3C//DTD SVG 1.1//EN" "http://www.w3.org/Graphics/SVG/1.1/DTD/svg11.dtd">
<svg xmlns="http://www.w3.org/2000/svg" version="1.1" width="23px" height="19px" style="shape-rendering:geometricPrecision; text-rendering:geometricPrecision; image-rendering:optimizeQuality; fill-rule:evenodd; clip-rule:evenodd" xmlns:xlink="http://www.w3.org/1999/xlink">
<g><path style="opacity:0.997" fill="#dfdfde" d="M 10.5,1.5 C 10.9731,2.90632 11.9731,3.57298 13.5,3.5C 14.0256,5.23033 15.0256,6.56366 16.5,7.5C 16.7214,10.2788 16.388,12.9455 15.5,15.5C 13.8333,15.5 12.1667,15.5 10.5,15.5C 10.5959,10.8897 11.5959,10.5564 13.5,14.5C 14.7296,10.9174 13.3962,9.75071 9.5,11C 8.9152,12.3024 8.24853,13.469 7.5,14.5C 6.84661,13.1932 6.17994,11.8599 5.5,10.5C 4.91515,7.31959 5.58181,4.31959 7.5,1.5C 8.5,1.5 9.5,1.5 10.5,1.5 Z"/></g>
<g><path style="opacity:0.086" fill="#5b5951" d="M 10.5,1.5 C 12.0269,1.42702 13.0269,2.09368 13.5,3.5C 11.9731,3.57298 10.9731,2.90632 10.5,1.5 Z"/></g>
<g><path style="opacity:0.008" fill="#49473f" d="M 13.5,3.5 C 15.4456,4.03472 16.4456,5.36805 16.5,7.5C 15.0256,6.56366 14.0256,5.23033 13.5,3.5 Z"/></g>
<g><path style="opacity:0.169" fill="#535148" d="M 10.5,1.5 C 9.5,1.5 8.5,1.5 7.5,1.5C 5.58181,4.31959 4.91515,7.31959 5.5,10.5C 6.17994,11.8599 6.84661,13.1932 7.5,14.5C 5.61142,13.5991 4.27809,12.0991 3.5,10C 3.76423,7.27242 4.76423,4.93909 6.5,3C 6.04265,2.58605 5.70931,2.08605 5.5,1.5C 7.29855,0.212137 8.96521,0.212137 10.5,1.5 Z"/></g>
<g><path style="opacity:0.608" fill="#86847d" d="M 16.5,7.5 C 17.1558,8.62159 17.4892,9.95492 17.5,11.5C 17.4146,13.3328 16.7479,14.6661 15.5,15.5C 16.388,12.9455 16.7214,10.2788 16.5,7.5 Z"/></g>
<g><path style="opacity:0.529" fill="#93928d" d="M 15.5,15.5 C 12.6596,16.9171 9.99298,16.5838 7.5,14.5C 8.24853,13.469 8.9152,12.3024 9.5,11C 13.3962,9.75071 14.7296,10.9174 13.5,14.5C 11.5959,10.5564 10.5959,10.8897 10.5,15.5C 12.1667,15.5 13.8333,15.5 15.5,15.5 Z"/></g>
</svg>
