<?xml version="1.0" encoding="UTF-8"?>
<!DOCTYPE svg PUBLIC "-//W3C//DTD SVG 1.1//EN" "http://www.w3.org/Graphics/SVG/1.1/DTD/svg11.dtd">
<svg xmlns="http://www.w3.org/2000/svg" version="1.1" width="28px" height="27px" style="shape-rendering:geometricPrecision; text-rendering:geometricPrecision; image-rendering:optimizeQuality; fill-rule:evenodd; clip-rule:evenodd" xmlns:xlink="http://www.w3.org/1999/xlink">
<g><path style="opacity:0.05" fill="#0a0909" d="M 5.5,-0.5 C 7.5,-0.5 9.5,-0.5 11.5,-0.5C 11.5,-0.166667 11.5,0.166667 11.5,0.5C 7.23292,1.76842 4.23292,4.43509 2.5,8.5C 1.59603,9.20895 1.26269,10.209 1.5,11.5C 0.833333,10.1667 0.166667,8.83333 -0.5,7.5C -0.5,6.83333 -0.5,6.16667 -0.5,5.5C 1.50855,3.45723 3.50855,1.45723 5.5,-0.5 Z"/></g>
<g><path style="opacity:0.052" fill="#0d0d0c" d="M 11.5,0.5 C 11.5,0.166667 11.5,-0.166667 11.5,-0.5C 15.1667,-0.5 18.8333,-0.5 22.5,-0.5C 24.5,0.833333 26.1667,2.5 27.5,4.5C 27.5,7.5 27.5,10.5 27.5,13.5C 27.1667,13.5 26.8333,13.5 26.5,13.5C 26.8294,10.7718 26.1628,8.4385 24.5,6.5C 21.345,2.09089 17.0117,0.0908897 11.5,0.5 Z"/></g>
<g><path style="opacity:0.953" fill="#bdc3c5" d="M 11.5,0.5 C 17.0117,0.0908897 21.345,2.09089 24.5,6.5C 24.5,7.5 24.5,8.5 24.5,9.5C 23.194,7.52729 21.5273,5.86063 19.5,4.5C 12.7607,0.794726 7.76073,2.46139 4.5,9.5C 3.54885,10.9187 3.21552,12.5853 3.5,14.5C 2.53862,12.7354 2.20528,10.7354 2.5,8.5C 4.23292,4.43509 7.23292,1.76842 11.5,0.5 Z"/></g>
<g><path style="opacity:1" fill="#4588a2" d="M 19.5,4.5 C 17.8212,4.28519 16.8212,4.95186 16.5,6.5C 16.5,7.16667 16.5,7.83333 16.5,8.5C 12.2497,9.55822 10.9163,12.0582 12.5,16C 13.448,16.4828 14.448,16.6495 15.5,16.5C 15.5792,15.0695 15.2458,13.7362 14.5,12.5C 15.8595,11.3347 16.8595,11.668 17.5,13.5C 17.2204,17.2253 15.2204,18.392 11.5,17C 8.8997,14.541 8.8997,12.041 11.5,9.5C 10.5,9.5 9.5,9.5 8.5,9.5C 9.5,8.16667 10.5,6.83333 11.5,5.5C 8.90077,5.35213 6.90077,6.68546 5.5,9.5C 5.16667,9.5 4.83333,9.5 4.5,9.5C 7.76073,2.46139 12.7607,0.794726 19.5,4.5 Z"/></g>
<g><path style="opacity:1" fill="#3e8cb0" d="M 19.5,4.5 C 21.5273,5.86063 23.194,7.52729 24.5,9.5C 24.7947,11.7354 24.4614,13.7354 23.5,15.5C 22.0655,12.5411 19.7322,9.5411 16.5,6.5C 16.8212,4.95186 17.8212,4.28519 19.5,4.5 Z"/></g>
<g><path style="opacity:0.055" fill="#121111" d="M 26.5,13.5 C 26.8333,13.5 27.1667,13.5 27.5,13.5C 27.5,16.1667 27.5,18.8333 27.5,21.5C 25.4752,23.1964 23.4752,24.863 21.5,26.5C 19.5,26.5 17.5,26.5 15.5,26.5C 15.5,26.1667 15.5,25.8333 15.5,25.5C 21.4477,23.6132 25.1144,19.6132 26.5,13.5 Z"/></g>
<g><path style="opacity:0.046" fill="#0d0c0c" d="M -0.5,7.5 C 0.166667,8.83333 0.833333,10.1667 1.5,11.5C 1.85046,20.5171 6.51713,25.1838 15.5,25.5C 15.5,25.8333 15.5,26.1667 15.5,26.5C 12.1667,26.5 8.83333,26.5 5.5,26.5C 2.79973,24.7656 0.799728,22.4323 -0.5,19.5C -0.5,15.5 -0.5,11.5 -0.5,7.5 Z"/></g>
<g><path style="opacity:1" fill="#265675" d="M 16.5,6.5 C 19.7322,9.5411 22.0655,12.5411 23.5,15.5C 22.8333,19.5 20.5,21.8333 16.5,22.5C 14.0733,22.477 11.74,21.977 9.5,21C 11.7078,20.8091 13.7078,20.3091 15.5,19.5C 19.2443,17.7009 20.2443,15.0343 18.5,11.5C 17.8333,10.5 17.1667,9.5 16.5,8.5C 16.5,7.83333 16.5,7.16667 16.5,6.5 Z"/></g>
<g><path style="opacity:1" fill="#469ec4" d="M 17.5,13.5 C 18.3382,13.1583 18.6716,12.4916 18.5,11.5C 20.2443,15.0343 19.2443,17.7009 15.5,19.5C 13.8008,19.6602 12.1341,19.4935 10.5,19C 8.44273,15.3128 6.77607,12.1462 5.5,9.5C 6.90077,6.68546 8.90077,5.35213 11.5,5.5C 10.5,6.83333 9.5,8.16667 8.5,9.5C 9.5,9.5 10.5,9.5 11.5,9.5C 8.8997,12.041 8.8997,14.541 11.5,17C 15.2204,18.392 17.2204,17.2253 17.5,13.5 Z"/></g>
<g><path style="opacity:0.871" fill="#aaaaab" d="M 24.5,6.5 C 26.1628,8.4385 26.8294,10.7718 26.5,13.5C 25.1144,19.6132 21.4477,23.6132 15.5,25.5C 6.51713,25.1838 1.85046,20.5171 1.5,11.5C 1.26269,10.209 1.59603,9.20895 2.5,8.5C 2.20528,10.7354 2.53862,12.7354 3.5,14.5C 5.45284,21.5101 9.78617,24.1767 16.5,22.5C 20.5,21.8333 22.8333,19.5 23.5,15.5C 24.4614,13.7354 24.7947,11.7354 24.5,9.5C 24.5,8.5 24.5,7.5 24.5,6.5 Z"/></g>
<g><path style="opacity:1" fill="#346a91" d="M 4.5,9.5 C 4.83333,9.5 5.16667,9.5 5.5,9.5C 6.77607,12.1462 8.44273,15.3128 10.5,19C 12.1341,19.4935 13.8008,19.6602 15.5,19.5C 13.7078,20.3091 11.7078,20.8091 9.5,21C 11.74,21.977 14.0733,22.477 16.5,22.5C 9.78617,24.1767 5.45284,21.5101 3.5,14.5C 3.21552,12.5853 3.54885,10.9187 4.5,9.5 Z"/></g>
<g><path style="opacity:1" fill="#7cc6e3" d="M 16.5,8.5 C 17.1667,9.5 17.8333,10.5 18.5,11.5C 18.6716,12.4916 18.3382,13.1583 17.5,13.5C 16.8595,11.668 15.8595,11.3347 14.5,12.5C 15.2458,13.7362 15.5792,15.0695 15.5,16.5C 14.448,16.6495 13.448,16.4828 12.5,16C 10.9163,12.0582 12.2497,9.55822 16.5,8.5 Z"/></g>
</svg>
