<?xml version="1.0" encoding="UTF-8"?>
<!DOCTYPE svg PUBLIC "-//W3C//DTD SVG 1.1//EN" "http://www.w3.org/Graphics/SVG/1.1/DTD/svg11.dtd">
<svg xmlns="http://www.w3.org/2000/svg" version="1.1" width="28px" height="27px" style="shape-rendering:geometricPrecision; text-rendering:geometricPrecision; image-rendering:optimizeQuality; fill-rule:evenodd; clip-rule:evenodd" xmlns:xlink="http://www.w3.org/1999/xlink">
<g><path style="opacity:0.046" fill="#101010" d="M 5.5,-0.5 C 10.5,-0.5 15.5,-0.5 20.5,-0.5C 23.1667,1.5 25.5,3.83333 27.5,6.5C 27.5,11.1667 27.5,15.8333 27.5,20.5C 25.8333,22.5 24.1667,24.5 22.5,26.5C 20.5,26.5 18.5,26.5 16.5,26.5C 16.5,26.1667 16.5,25.8333 16.5,25.5C 24.0625,22.376 26.8958,16.7094 25,8.5C 20.2963,1.82153 14.1296,-0.0118001 6.5,3C -1.63245,10.5693 -1.29911,17.736 7.5,24.5C 8.16667,25.1667 8.83333,25.8333 9.5,26.5C 7.5,26.5 5.5,26.5 3.5,26.5C 2.5,24.8333 1.16667,23.5 -0.5,22.5C -0.5,16.8333 -0.5,11.1667 -0.5,5.5C 1.16667,3.16667 3.16667,1.16667 5.5,-0.5 Z"/></g>
<g><path style="opacity:0.965" fill="#bcbcb7" d="M 16.5,25.5 C 14.8008,25.6602 13.1341,25.4935 11.5,25C 13.0581,24.79 14.3915,24.29 15.5,23.5C 22.6741,21.1521 25.0075,16.4855 22.5,9.5C 21.6411,6.54795 19.6411,4.71461 16.5,4C 7.64131,2.86514 3.14131,6.69847 3,15.5C 3.27842,16.4158 3.77842,17.0825 4.5,17.5C 4.79503,21.1285 6.79503,23.1285 10.5,23.5C 9.79105,24.404 8.79105,24.7373 7.5,24.5C -1.29911,17.736 -1.63245,10.5693 6.5,3C 14.1296,-0.0118001 20.2963,1.82153 25,8.5C 26.8958,16.7094 24.0625,22.376 16.5,25.5 Z"/></g>
<g><path style="opacity:1" fill="#7c8d37" d="M 22.5,9.5 C 23.1903,14.1129 21.6903,17.7795 18,20.5C 17.5,20.1667 17,19.8333 16.5,19.5C 17.7598,18.6184 18.9264,17.6184 20,16.5C 20.6917,15.5632 20.525,14.8966 19.5,14.5C 18.671,10.8292 16.5043,8.1625 13,6.5C 9.81979,7.8394 7.98645,10.1727 7.5,13.5C 7.28099,14.675 7.61432,15.675 8.5,16.5C 10.0255,16.9943 11.3588,17.661 12.5,18.5C 10.857,18.4802 9.5237,19.1468 8.5,20.5C 7.14819,19.4756 5.81486,18.4756 4.5,17.5C 3.77842,17.0825 3.27842,16.4158 3,15.5C 3.14131,6.69847 7.64131,2.86514 16.5,4C 19.6411,4.71461 21.6411,6.54795 22.5,9.5 Z"/></g>
<g><path style="opacity:1" fill="#a4a453" d="M 14.5,16.5 C 13.1667,16.5 12.5,15.8333 12.5,14.5C 12.3379,12.4727 12.5045,10.4727 13,8.5C 14.3747,10.9368 14.8747,13.6035 14.5,16.5 Z"/></g>
<g><path style="opacity:1" fill="#eae677" d="M 19.5,14.5 C 19.1667,15.5 18.5,16.1667 17.5,16.5C 16.5,16.5 15.5,16.5 14.5,16.5C 14.8747,13.6035 14.3747,10.9368 13,8.5C 12.5045,10.4727 12.3379,12.4727 12.5,14.5C 10.8828,13.962 9.2161,13.6287 7.5,13.5C 7.98645,10.1727 9.81979,7.8394 13,6.5C 16.5043,8.1625 18.671,10.8292 19.5,14.5 Z"/></g>
<g><path style="opacity:1" fill="#bdc439" d="M 7.5,13.5 C 9.2161,13.6287 10.8828,13.962 12.5,14.5C 12.5,15.8333 13.1667,16.5 14.5,16.5C 15.5,16.5 16.5,16.5 17.5,16.5C 16.1516,17.1859 14.985,18.1859 14,19.5C 13.6174,18.944 13.1174,18.6107 12.5,18.5C 11.3588,17.661 10.0255,16.9943 8.5,16.5C 7.61432,15.675 7.28099,14.675 7.5,13.5 Z"/></g>
<g><path style="opacity:1" fill="#556525" d="M 22.5,9.5 C 25.0075,16.4855 22.6741,21.1521 15.5,23.5C 13.8333,23.5 12.1667,23.5 10.5,23.5C 6.79503,23.1285 4.79503,21.1285 4.5,17.5C 5.81486,18.4756 7.14819,19.4756 8.5,20.5C 9.5237,19.1468 10.857,18.4802 12.5,18.5C 13.1174,18.6107 13.6174,18.944 14,19.5C 14.985,18.1859 16.1516,17.1859 17.5,16.5C 18.5,16.1667 19.1667,15.5 19.5,14.5C 20.525,14.8966 20.6917,15.5632 20,16.5C 18.9264,17.6184 17.7598,18.6184 16.5,19.5C 17,19.8333 17.5,20.1667 18,20.5C 21.6903,17.7795 23.1903,14.1129 22.5,9.5 Z"/></g>
<g><path style="opacity:0.867" fill="#7d7e7a" d="M 10.5,23.5 C 12.1667,23.5 13.8333,23.5 15.5,23.5C 14.3915,24.29 13.0581,24.79 11.5,25C 13.1341,25.4935 14.8008,25.6602 16.5,25.5C 16.5,25.8333 16.5,26.1667 16.5,26.5C 14.1667,26.5 11.8333,26.5 9.5,26.5C 8.83333,25.8333 8.16667,25.1667 7.5,24.5C 8.79105,24.7373 9.79105,24.404 10.5,23.5 Z"/></g>
</svg>
