<?xml version="1.0" encoding="UTF-8"?>
<!DOCTYPE svg PUBLIC "-//W3C//DTD SVG 1.1//EN" "http://www.w3.org/Graphics/SVG/1.1/DTD/svg11.dtd">
<svg xmlns="http://www.w3.org/2000/svg" version="1.1" width="28px" height="27px" style="shape-rendering:geometricPrecision; text-rendering:geometricPrecision; image-rendering:optimizeQuality; fill-rule:evenodd; clip-rule:evenodd" xmlns:xlink="http://www.w3.org/1999/xlink">
<g><path style="opacity:0.027" fill="#0e0f0f" d="M 18.5,1.5 C 23.3825,2.09994 26.3825,4.76661 27.5,9.5C 27.5,12.5 27.5,15.5 27.5,18.5C 26.361,21.4336 24.6943,24.1003 22.5,26.5C 20.8333,26.5 19.1667,26.5 17.5,26.5C 18.3065,25.2719 19.3065,24.2719 20.5,23.5C 25.1894,20.012 26.6894,15.3453 25,9.5C 23.3059,6.64238 21.1393,4.30904 18.5,2.5C 18.5,2.16667 18.5,1.83333 18.5,1.5 Z"/></g>
<g><path style="opacity:0.827" fill="#bbb4b2" d="M 16.5,2.5 C 17.1667,2.5 17.8333,2.5 18.5,2.5C 21.1393,4.30904 23.3059,6.64238 25,9.5C 26.6894,15.3453 25.1894,20.012 20.5,23.5C 20.5,22.8333 20.1667,22.5 19.5,22.5C 20.657,20.8624 21.8236,19.1957 23,17.5C 23.7958,14.9615 23.6291,12.6282 22.5,10.5C 21.2128,7.54685 19.2128,5.21351 16.5,3.5C 16.5,3.16667 16.5,2.83333 16.5,2.5 Z"/></g>
<g><path style="opacity:1" fill="#b94212" d="M 16.5,3.5 C 19.2128,5.21351 21.2128,7.54685 22.5,10.5C 22.5979,12.5529 21.9313,14.2196 20.5,15.5C 20.6882,13.8967 20.1882,12.5634 19,11.5C 18.5357,12.0944 18.369,12.7611 18.5,13.5C 18.573,15.0269 17.9063,16.0269 16.5,16.5C 15.8333,13.5 15.1667,10.5 14.5,7.5C 12.6002,9.61947 10.9336,11.9528 9.5,14.5C 8.16667,13.8333 6.83333,13.1667 5.5,12.5C 5.5,14.1667 5.5,15.8333 5.5,17.5C 4.71003,16.3915 4.21003,15.0581 4,13.5C 3.50649,15.1341 3.33982,16.8008 3.5,18.5C 1.4979,8.47893 5.83124,3.47893 16.5,3.5 Z"/></g>
<g><path style="opacity:1" fill="#dc3200" d="M 5.5,12.5 C 4.42654,11.7494 4.25988,10.7494 5,9.5C 6.57073,7.07714 8.7374,5.74381 11.5,5.5C 11.8483,9.93804 9.84835,12.2714 5.5,12.5 Z"/></g>
<g><path style="opacity:1" fill="#b2760b" d="M 14.5,7.5 C 15.1667,10.5 15.8333,13.5 16.5,16.5C 16.44,17.0431 16.1067,17.3764 15.5,17.5C 14.7189,16.2713 14.2189,14.938 14,13.5C 12.2002,15.3651 12.0336,17.3651 13.5,19.5C 13.44,20.0431 13.1067,20.3764 12.5,20.5C 11.8182,19.7573 11.1515,19.0906 10.5,18.5C 11.8917,14.8036 13.225,11.1369 14.5,7.5 Z"/></g>
<g><path style="opacity:1" fill="#edb811" d="M 14.5,7.5 C 13.225,11.1369 11.8917,14.8036 10.5,18.5C 10.1667,18.5 9.83333,18.5 9.5,18.5C 8.16667,17.1667 8.16667,15.8333 9.5,14.5C 10.9336,11.9528 12.6002,9.61947 14.5,7.5 Z"/></g>
<g><path style="opacity:1" fill="#ae5e0e" d="M 5.5,12.5 C 6.83333,13.1667 8.16667,13.8333 9.5,14.5C 8.16667,15.8333 8.16667,17.1667 9.5,18.5C 9.44312,19.609 9.10978,20.609 8.5,21.5C 6.73758,20.7377 5.73758,19.4044 5.5,17.5C 5.5,15.8333 5.5,14.1667 5.5,12.5 Z"/></g>
<g><path style="opacity:0.038" fill="#121313" d="M 7.5,-0.5 C 7.83333,-0.5 8.16667,-0.5 8.5,-0.5C 11.8333,0.166667 15.1667,0.833333 18.5,1.5C 18.5,1.83333 18.5,2.16667 18.5,2.5C 17.8333,2.5 17.1667,2.5 16.5,2.5C 9.49952,0.242186 4.33285,2.57552 1,9.5C 0.333333,12.5 0.333333,15.5 1,18.5C 2.80769,21.4796 4.97436,24.1463 7.5,26.5C 6.16667,26.5 4.83333,26.5 3.5,26.5C 2.5,24.8333 1.16667,23.5 -0.5,22.5C -0.5,22.1667 -0.5,21.8333 -0.5,21.5C 0.833333,21.1667 0.833333,20.8333 -0.5,20.5C -0.5,16.1667 -0.5,11.8333 -0.5,7.5C 0.26791,6.73747 0.76791,5.73747 1,4.5C 3.40569,2.91336 5.57236,1.2467 7.5,-0.5 Z"/></g>
<g><path style="opacity:1" fill="#dc781a" d="M 20.5,15.5 C 18.7634,22.2016 14.7634,24.2016 8.5,21.5C 9.10978,20.609 9.44312,19.609 9.5,18.5C 9.83333,18.5 10.1667,18.5 10.5,18.5C 11.1515,19.0906 11.8182,19.7573 12.5,20.5C 13.1067,20.3764 13.44,20.0431 13.5,19.5C 16.7649,19.6997 18.7649,18.1997 19.5,15C 19.4301,14.2352 19.0967,13.7352 18.5,13.5C 18.369,12.7611 18.5357,12.0944 19,11.5C 20.1882,12.5634 20.6882,13.8967 20.5,15.5 Z"/></g>
<g><path style="opacity:0.859" fill="#b7b0af" d="M 16.5,2.5 C 16.5,2.83333 16.5,3.16667 16.5,3.5C 5.83124,3.47893 1.4979,8.47893 3.5,18.5C 7.40164,24.8364 12.735,26.1697 19.5,22.5C 20.1667,22.5 20.5,22.8333 20.5,23.5C 19.3065,24.2719 18.3065,25.2719 17.5,26.5C 14.1667,26.5 10.8333,26.5 7.5,26.5C 4.97436,24.1463 2.80769,21.4796 1,18.5C 0.333333,15.5 0.333333,12.5 1,9.5C 4.33285,2.57552 9.49952,0.242186 16.5,2.5 Z"/></g>
<g><path style="opacity:1" fill="#722719" d="M 22.5,10.5 C 23.6291,12.6282 23.7958,14.9615 23,17.5C 21.8236,19.1957 20.657,20.8624 19.5,22.5C 12.735,26.1697 7.40164,24.8364 3.5,18.5C 3.33982,16.8008 3.50649,15.1341 4,13.5C 4.21003,15.0581 4.71003,16.3915 5.5,17.5C 5.73758,19.4044 6.73758,20.7377 8.5,21.5C 14.7634,24.2016 18.7634,22.2016 20.5,15.5C 21.9313,14.2196 22.5979,12.5529 22.5,10.5 Z"/></g>
<g><path style="opacity:1" fill="#f1b617" d="M 16.5,16.5 C 17.9063,16.0269 18.573,15.0269 18.5,13.5C 19.0967,13.7352 19.4301,14.2352 19.5,15C 18.7649,18.1997 16.7649,19.6997 13.5,19.5C 12.0336,17.3651 12.2002,15.3651 14,13.5C 14.2189,14.938 14.7189,16.2713 15.5,17.5C 16.1067,17.3764 16.44,17.0431 16.5,16.5 Z"/></g>
</svg>
