<?xml version="1.0" encoding="UTF-8"?>
<!DOCTYPE svg PUBLIC "-//W3C//DTD SVG 1.1//EN" "http://www.w3.org/Graphics/SVG/1.1/DTD/svg11.dtd">
<svg xmlns="http://www.w3.org/2000/svg" version="1.1" width="23px" height="19px" style="shape-rendering:geometricPrecision; text-rendering:geometricPrecision; image-rendering:optimizeQuality; fill-rule:evenodd; clip-rule:evenodd" xmlns:xlink="http://www.w3.org/1999/xlink">
<g><path style="opacity:0.027" fill="#37362a" d="M 19.5,-0.5 C 19.8333,-0.5 20.1667,-0.5 20.5,-0.5C 20.7678,1.09903 20.4345,2.43236 19.5,3.5C 19.5,2.16667 18.8333,1.5 17.5,1.5C 18.1667,0.833333 18.8333,0.166667 19.5,-0.5 Z"/></g>
<g><path style="opacity:0.561" fill="#77766f" d="M 17.5,1.5 C 18.8333,1.5 19.5,2.16667 19.5,3.5C 19.1667,3.5 18.8333,3.5 18.5,3.5C 17.6522,2.37505 16.6522,2.37505 15.5,3.5C 14.7109,3.78281 14.0442,4.28281 13.5,5C 14.7736,5.97722 14.7736,6.81056 13.5,7.5C 11.8778,3.76056 13.2112,1.76056 17.5,1.5 Z"/></g>
<g><path style="opacity:0.998" fill="#e5e5e5" d="M 18.5,3.5 C 18.5,4.5 18.5,5.5 18.5,6.5C 17.5,6.5 16.5,6.5 15.5,6.5C 15.5,5.5 15.5,4.5 15.5,3.5C 16.6522,2.37505 17.6522,2.37505 18.5,3.5 Z"/></g>
<g><path style="opacity:0.214" fill="#56554b" d="M 18.5,3.5 C 18.8333,3.5 19.1667,3.5 19.5,3.5C 19.7989,5.60395 19.4656,7.60395 18.5,9.5C 17.4728,8.20859 16.4728,8.20859 15.5,9.5C 16.0998,8.10008 17.0998,7.10008 18.5,6.5C 18.5,5.5 18.5,4.5 18.5,3.5 Z"/></g>
<g><path style="opacity:0.29" fill="#54534a" d="M 10.5,6.5 C 9.20895,6.26269 8.20895,6.59603 7.5,7.5C 6.56552,8.56764 6.23219,9.90097 6.5,11.5C 6.16667,11.5 5.83333,11.5 5.5,11.5C 4.25295,6.74646 5.91962,5.07979 10.5,6.5 Z"/></g>
<g><path style="opacity:0.998" fill="#e1e1e1" d="M 7.5,7.5 C 8.5,7.5 9.5,7.5 10.5,7.5C 10.5,8.83333 10.5,10.1667 10.5,11.5C 9.16667,11.5 7.83333,11.5 6.5,11.5C 6.23219,9.90097 6.56552,8.56764 7.5,7.5 Z"/></g>
<g><path style="opacity:0.886" fill="#c6c6c4" d="M 15.5,3.5 C 15.5,4.5 15.5,5.5 15.5,6.5C 16.5,6.5 17.5,6.5 18.5,6.5C 17.0998,7.10008 16.0998,8.10008 15.5,9.5C 14.8333,10.5 14.1667,11.5 13.5,12.5C 13.5,11.8333 13.1667,11.5 12.5,11.5C 12.4326,10.0413 12.7659,8.70792 13.5,7.5C 14.7736,6.81056 14.7736,5.97722 13.5,5C 14.0442,4.28281 14.7109,3.78281 15.5,3.5 Z"/></g>
<g><path style="opacity:0.286" fill="#75746d" d="M 7.5,7.5 C 8.20895,6.59603 9.20895,6.26269 10.5,6.5C 11.391,7.10978 12.391,7.44312 13.5,7.5C 12.7659,8.70792 12.4326,10.0413 12.5,11.5C 12.3893,12.1174 12.056,12.6174 11.5,13C 9.5273,13.4955 7.5273,13.6621 5.5,13.5C 4.16667,13.5 3.5,14.1667 3.5,15.5C 2.59603,14.791 2.26269,13.791 2.5,12.5C 4.09903,12.7678 5.43236,12.4345 6.5,11.5C 7.83333,11.5 9.16667,11.5 10.5,11.5C 10.5,10.1667 10.5,8.83333 10.5,7.5C 9.5,7.5 8.5,7.5 7.5,7.5 Z"/></g>
<g><path style="opacity:0.999" fill="#eaeaea" d="M 5.5,13.5 C 7.16667,14.1667 8.83333,14.8333 10.5,15.5C 8.16667,15.5 5.83333,15.5 3.5,15.5C 3.5,14.1667 4.16667,13.5 5.5,13.5 Z"/></g>
<g><path style="opacity:0.867" fill="#d5d5d3" d="M 12.5,11.5 C 13.1667,11.5 13.5,11.8333 13.5,12.5C 13.5,13.1667 13.5,13.8333 13.5,14.5C 12.391,14.5569 11.391,14.8902 10.5,15.5C 8.83333,14.8333 7.16667,14.1667 5.5,13.5C 7.5273,13.6621 9.5273,13.4955 11.5,13C 12.056,12.6174 12.3893,12.1174 12.5,11.5 Z"/></g>
<g><path style="opacity:0.09" fill="#54534a" d="M 15.5,9.5 C 15.8799,11.698 15.2132,13.3646 13.5,14.5C 13.5,13.8333 13.5,13.1667 13.5,12.5C 14.1667,11.5 14.8333,10.5 15.5,9.5 Z"/></g>
<g><path style="opacity:0.149" fill="#49483e" d="M 5.5,11.5 C 5.83333,11.5 6.16667,11.5 6.5,11.5C 5.43236,12.4345 4.09903,12.7678 2.5,12.5C 2.26269,13.791 2.59603,14.791 3.5,15.5C 5.26465,16.4614 7.26465,16.7947 9.5,16.5C 7.37184,17.6291 5.03851,17.7958 2.5,17C 1.59391,15.3005 1.26057,13.4672 1.5,11.5C 2.83333,11.5 4.16667,11.5 5.5,11.5 Z"/></g>
<g><path style="opacity:0.675" fill="#898982" d="M 13.5,14.5 C 12.713,16.1042 11.3797,16.7709 9.5,16.5C 7.26465,16.7947 5.26465,16.4614 3.5,15.5C 5.83333,15.5 8.16667,15.5 10.5,15.5C 11.391,14.8902 12.391,14.5569 13.5,14.5 Z"/></g>
</svg>
