<?xml version="1.0" encoding="UTF-8"?>
<!DOCTYPE svg PUBLIC "-//W3C//DTD SVG 1.1//EN" "http://www.w3.org/Graphics/SVG/1.1/DTD/svg11.dtd">
<svg xmlns="http://www.w3.org/2000/svg" version="1.1" width="23px" height="19px" style="shape-rendering:geometricPrecision; text-rendering:geometricPrecision; image-rendering:optimizeQuality; fill-rule:evenodd; clip-rule:evenodd" xmlns:xlink="http://www.w3.org/1999/xlink">
<g><path style="opacity:0.714" fill="#ececec" d="M 7.5,0.5 C 9.19919,0.339822 10.8659,0.506489 12.5,1C 15.1543,2.04527 17.4876,3.54527 19.5,5.5C 18.1028,7.98176 17.2694,10.6484 17,13.5C 12.3333,18.8333 7.66667,18.8333 3,13.5C 1.81804,10.1436 1.65137,6.81024 2.5,3.5C 4.59757,3.04279 6.26424,2.04279 7.5,0.5 Z"/></g>
<g><path style="opacity:0.995" fill="#f6f6f6" d="M 13.5,4.5 C 12.0474,5.82487 12.3808,6.6582 14.5,7C 13.5,7.33333 12.5,7.66667 11.5,8C 13.1193,8.23555 14.1193,9.06888 14.5,10.5C 11.4017,10.4125 11.0684,10.9125 13.5,12C 12.244,12.4169 11.5774,13.2502 11.5,14.5C 10.8333,11.5 10.1667,8.5 9.5,5.5C 10.2919,3.25521 11.6253,2.92187 13.5,4.5 Z"/></g>
<g><path style="opacity:1" fill="#f0f0f0" d="M 13.5,4.5 C 14.6935,4.97041 15.3601,5.97041 15.5,7.5C 15.4805,8.72612 15.1471,9.72612 14.5,10.5C 14.1193,9.06888 13.1193,8.23555 11.5,8C 12.5,7.66667 13.5,7.33333 14.5,7C 12.3808,6.6582 12.0474,5.82487 13.5,4.5 Z"/></g>
<g><path style="opacity:0.928" fill="#f1f1f1" d="M 9.5,5.5 C 10.1667,8.5 10.8333,11.5 11.5,14.5C 11.44,15.0431 11.1067,15.3764 10.5,15.5C 9.51298,12.2317 9.17964,8.89838 9.5,5.5 Z"/></g>
</svg>
