<?xml version="1.0" encoding="UTF-8"?>
<!DOCTYPE svg PUBLIC "-//W3C//DTD SVG 1.1//EN" "http://www.w3.org/Graphics/SVG/1.1/DTD/svg11.dtd">
<svg xmlns="http://www.w3.org/2000/svg" version="1.1" width="79px" height="87px" style="shape-rendering:geometricPrecision; text-rendering:geometricPrecision; image-rendering:optimizeQuality; fill-rule:evenodd; clip-rule:evenodd" xmlns:xlink="http://www.w3.org/1999/xlink">
<g><path style="opacity:1" fill="#e1e0e0" d="M 41.5,45.5 C 41.8212,47.0481 42.8212,47.7148 44.5,47.5C 44.5,48.5 44.5,49.5 44.5,50.5C 42.0504,50.702 39.717,50.3686 37.5,49.5C 37.0189,46.6027 35.3523,44.9361 32.5,44.5C 31.1667,42.8333 31.1667,41.1667 32.5,39.5C 33.7348,39.7214 34.7348,40.3881 35.5,41.5C 36.4519,39.9547 36.7852,38.288 36.5,36.5C 38.0348,35.2121 39.7015,35.2121 41.5,36.5C 40.2172,39.6346 40.2172,42.6346 41.5,45.5 Z"/></g>
<g><path style="opacity:0.098" fill="#605653" d="M 41.5,45.5 C 40.2172,42.6346 40.2172,39.6346 41.5,36.5C 39.7015,35.2121 38.0348,35.2121 36.5,36.5C 36.1667,36.5 35.8333,36.5 35.5,36.5C 35.4142,35.5041 35.7476,34.6708 36.5,34C 39.3627,33.035 41.696,33.7017 43.5,36C 41.7746,38.8857 41.1079,42.0523 41.5,45.5 Z"/></g>
<g><path style="opacity:0.455" fill="#918b89" d="M 35.5,36.5 C 35.8333,36.5 36.1667,36.5 36.5,36.5C 36.7852,38.288 36.4519,39.9547 35.5,41.5C 34.7348,40.3881 33.7348,39.7214 32.5,39.5C 32.5,39.1667 32.5,38.8333 32.5,38.5C 33.2905,37.5987 34.2905,36.9321 35.5,36.5 Z"/></g>
<g><path style="opacity:0.216" fill="#564c49" d="M 32.5,38.5 C 32.5,38.8333 32.5,39.1667 32.5,39.5C 31.1667,41.1667 31.1667,42.8333 32.5,44.5C 31.3509,44.2089 30.6842,43.3756 30.5,42C 30.3866,40.3009 31.0532,39.1342 32.5,38.5 Z"/></g>
<g><path style="opacity:0.675" fill="#8d8784" d="M 32.5,44.5 C 35.3523,44.9361 37.0189,46.6027 37.5,49.5C 37.1667,49.5 36.8333,49.5 36.5,49.5C 35.197,47.8577 33.8637,46.1911 32.5,44.5 Z"/></g>
<g><path style="opacity:0.318" fill="#625855" d="M 41.5,45.5 C 43.8053,45.8628 45.472,47.0294 46.5,49C 46.1639,50.0299 45.4972,50.5299 44.5,50.5C 44.5,49.5 44.5,48.5 44.5,47.5C 42.8212,47.7148 41.8212,47.0481 41.5,45.5 Z"/></g>
<g><path style="opacity:0.008" fill="#463b37" d="M 36.5,49.5 C 36.8333,49.5 37.1667,49.5 37.5,49.5C 39.717,50.3686 42.0504,50.702 44.5,50.5C 43.5514,51.1524 42.3847,51.4857 41,51.5C 38.9919,51.6932 37.4919,51.0265 36.5,49.5 Z"/></g>
</svg>
