<svg version="1.0" xmlns="http://www.w3.org/2000/svg"
 width="42.000000pt" height="40.000000pt" viewBox="0 0 42.000000 40.000000"
 preserveAspectRatio="xMidYMid meet" fill="currentColor">

<g transform="translate(0.000000,40.000000) scale(0.100000,-0.100000)" stroke="none">
<path d="M20 330 c0 -49 1 -50 30 -50 l30 0 0 -136 0 -135 48 3 47 3 3 42 c6
80 58 80 64 0 l3 -42 48 -3 47 -3 0 135 0 136 30 0 c29 0 30 1 30 50 l0 50
-56 0 c-47 0 -57 -3 -61 -20 -3 -11 -9 -20 -13 -20 -4 0 -10 9 -13 20 -4 16
-14 20 -47 20 -33 0 -43 -4 -47 -20 -3 -11 -9 -20 -13 -20 -4 0 -10 9 -13 20
-4 17 -14 20 -61 20 l-56 0 0 -50z"/>
</g>
</svg>
