<svg version="1.0" xmlns="http://www.w3.org/2000/svg"
 width="67.000000pt" height="60.000000pt" viewBox="0 0 67.000000 80.000000"
 preserveAspectRatio="xMidYMid meet" fill="currentColor">
<g transform="translate(0.000000,80.000000) scale(0.100000,-0.100000)" stroke="none">
<path d="M290 585 c-7 -8 -21 -15 -30 -15 -10 0 -40 -16 -65 -36 -44 -33 -49
-35 -76 -23 -17 6 -34 20 -40 30 -12 23 -35 25 -43 3 -3 -9 -6 -33 -6 -54 0
-30 6 -44 30 -63 16 -14 38 -28 47 -32 10 -3 32 -34 48 -67 17 -34 41 -69 55
-77 23 -15 24 -15 16 4 -13 33 -12 47 6 59 29 18 52 -4 58 -55 7 -57 34 -62
38 -6 2 27 10 42 28 54 23 14 27 15 41 1 12 -13 13 -20 3 -38 -6 -12 -9 -24
-6 -27 9 -9 56 26 56 42 0 40 35 97 77 126 54 38 67 66 50 116 -14 43 -33 53
-42 23 -4 -12 -22 -28 -41 -36 -42 -18 -35 -19 -73 15 -18 16 -45 32 -59 36
-15 4 -34 13 -43 21 -14 13 -18 13 -29 -1z"/>
</g>
</svg>
