<svg version="1.0" xmlns="http://www.w3.org/2000/svg"
 width="42.000000pt" height="40.000000pt" viewBox="0 0 512.000000 512.000000"
 preserveAspectRatio="xMidYMid meet" fill="currentColor">
<g transform="translate(0.000000,512.000000) scale(0.100000,-0.100000)" stroke="none">
<path d="M2510 5102 c-17 -14 -38 -80 -101 -322 -43 -168 -79 -306 -79 -307 0
0 -28 -4 -62 -8 -153 -17 -400 -96 -573 -182 -107 -54 -287 -171 -370 -242
-40 -34 -65 -49 -75 -44 -8 3 -34 8 -57 11 -58 6 -87 -23 -81 -81 3 -23 8 -49
11 -57 5 -10 -10 -35 -44 -75 -74 -88 -183 -254 -238 -364 -90 -178 -168 -424
-186 -578 -7 -62 -7 -63 -43 -72 -21 -5 -81 -21 -135 -35 -55 -14 -103 -26
-109 -26 -27 0 24 306 80 490 150 486 464 907 892 1194 181 121 445 239 664
297 120 31 146 49 146 101 0 35 -39 78 -72 78 -13 0 -73 -13 -134 -29 -416
-110 -796 -336 -1102 -655 -370 -388 -591 -871 -644 -1406 l-11 -119 -76 -20
c-83 -22 -111 -46 -111 -91 0 -45 28 -69 111 -91 l76 -20 11 -119 c56 -572
309 -1089 727 -1488 387 -370 871 -591 1405 -644 l118 -11 19 -71 c20 -81 48
-116 91 -116 47 0 70 27 93 111 l20 76 119 11 c572 56 1089 309 1488 727 370
387 591 871 644 1405 l11 119 76 20 c83 22 111 46 111 91 0 45 -28 69 -111 91
l-76 20 -11 119 c-97 985 -797 1811 -1746 2061 -132 34 -169 36 -196 9 -26
-26 -27 -90 -2 -113 9 -8 63 -27 118 -41 483 -122 912 -404 1215 -797 245
-318 398 -693 443 -1086 10 -81 10 -103 0 -103 -7 0 -56 12 -111 26 -54 14
-115 30 -135 35 -32 8 -38 14 -38 35 0 54 -43 235 -86 363 -67 199 -183 420
-238 457 -46 30 -116 -8 -116 -63 0 -15 24 -70 54 -122 30 -53 72 -137 94
-187 57 -130 135 -404 119 -420 -6 -6 -670 162 -693 175 -7 4 66 168 198 446
140 295 208 450 208 472 0 43 -30 73 -73 73 -22 0 -178 -69 -472 -208 -278
-132 -442 -205 -446 -198 -13 23 -181 687 -175 693 16 16 290 -61 420 -119 50
-22 131 -62 180 -90 102 -59 139 -64 174 -23 32 37 28 72 -11 109 -52 49 -277
159 -427 210 -130 43 -310 86 -364 86 -14 0 -26 1 -26 3 0 1 -36 139 -79 307
-85 326 -91 340 -151 340 -15 0 -38 -8 -50 -18z m265 -1212 l206 -794 -211
-211 -210 -210 1 1015 c0 558 2 1011 4 1005 2 -5 97 -368 210 -805z m-495 401
c0 -15 -169 -664 -177 -682 -7 -13 -60 9 -333 138 -179 85 -329 158 -334 163
-5 5 31 37 80 74 175 129 390 231 609 287 117 30 155 35 155 20z m-229 -859
c4 -4 -10 -71 -30 -149 l-36 -143 -310 310 -310 310 340 -160 c187 -89 343
-164 346 -168z m1548 -19 c-88 -186 -163 -341 -167 -344 -4 -4 -71 10 -149 30
l-143 36 307 307 c170 170 309 308 310 308 0 0 -71 -152 -158 -337z m-2226
-63 c97 -205 150 -327 143 -331 -23 -13 -687 -181 -693 -175 -9 9 23 154 59
266 34 107 95 242 156 347 60 102 162 237 172 227 5 -5 78 -155 163 -334z
m862 -580 l210 -210 -1015 1 c-558 1 -1008 3 -1000 6 59 16 1577 411 1585 412
6 1 105 -93 220 -209z m2460 -215 c-5 -2 -368 -97 -805 -210 l-794 -206 -211
211 -210 210 1015 -1 c558 0 1011 -2 1005 -4z m-2137 -1629 l-3 -505 -208 802
-208 801 208 208 208 208 3 -505 c1 -278 1 -732 0 -1009z m-2081 1448 c54 -14
114 -30 135 -35 35 -9 36 -10 43 -71 11 -90 57 -269 100 -383 71 -189 192
-398 320 -553 37 -44 53 -72 48 -82 -3 -8 -8 -34 -11 -57 -6 -58 23 -87 81
-81 23 3 49 8 57 11 10 5 38 -11 82 -48 155 -128 364 -249 553 -320 114 -43
293 -89 383 -100 61 -7 62 -8 71 -43 5 -21 21 -81 35 -135 14 -55 26 -103 26
-109 0 -15 -141 -1 -280 27 -437 90 -806 289 -1120 604 -318 318 -515 684
-605 1121 -28 139 -42 280 -27 280 6 0 54 -12 109 -26z m4277 -76 c-45 -393
-196 -764 -442 -1087 -83 -109 -292 -318 -398 -398 -281 -213 -577 -348 -914
-418 -139 -28 -280 -42 -280 -27 0 6 12 54 26 109 14 54 30 114 35 135 9 35
10 36 71 43 90 11 269 57 383 100 189 71 398 192 553 320 44 37 72 53 82 48 8
-3 34 -8 57 -11 58 -6 87 23 81 81 -3 23 -8 49 -11 57 -5 10 11 38 48 82 128
155 249 364 320 553 43 114 89 293 100 384 6 55 9 62 33 68 15 3 72 18 127 33
154 42 143 48 129 -72z m-3587 -103 c180 -47 335 -88 344 -92 14 -7 4 -34 -67
-183 -46 -96 -117 -247 -159 -334 l-75 -159 -21 19 c-41 37 -169 241 -222 354
-59 125 -95 228 -127 360 -22 95 -24 120 -11 120 5 0 157 -38 338 -85z m3133
68 c0 -28 -38 -180 -66 -268 -54 -165 -184 -404 -291 -537 l-30 -37 -160 337
c-88 185 -159 339 -157 341 5 5 665 179 687 180 10 1 17 -6 17 -16z m-2442
-247 l122 -31 -310 -310 -310 -310 154 327 c193 407 173 370 199 362 12 -4 77
-21 145 -38z m1587 -346 l310 -311 -235 112 c-129 61 -286 135 -348 165 -74
35 -112 58 -109 66 3 7 20 73 38 146 18 72 33 132 34 132 0 0 140 -140 310
-310z m-1250 -503 c48 -186 85 -341 81 -344 -9 -9 -153 23 -266 59 -175 56
-413 183 -552 295 l-37 30 337 160 c213 101 339 156 343 149 4 -6 46 -163 94
-349z m1160 203 c376 -178 341 -157 318 -182 -36 -40 -240 -168 -353 -222 -63
-29 -158 -67 -210 -84 -113 -36 -257 -68 -266 -59 -5 5 112 475 162 654 l15
53 27 -14 c15 -8 153 -73 307 -146z"/>
</g>
</svg>
