<svg version="1.0" xmlns="http://www.w3.org/2000/svg"
 width="65.000000pt" height="55.000000pt" viewBox="0 0 65.000000 75.000000"
 preserveAspectRatio="xMidYMid meet" fill="currentColor">
<g transform="translate(0.000000,75.000000) scale(0.100000,-0.100000)" stroke="none">
<path d="M267 575 c-20 -7 -48 -20 -62 -29 -32 -21 -35 -20 -35 9 0 14 -4 25
-8 25 -14 0 -110 -104 -117 -127 -6 -23 6 -55 35 -88 10 -11 23 -36 29 -56 7
-20 21 -45 31 -54 11 -10 20 -25 20 -34 0 -9 9 -27 19 -40 15 -20 24 -23 57
-17 49 7 98 8 147 0 31 -5 42 -2 58 14 10 12 19 29 19 39 0 10 12 36 25 58 14
22 25 46 25 53 0 7 13 24 29 38 34 29 47 73 31 106 -13 25 -98 108 -112 108
-4 0 -8 -14 -8 -30 l0 -31 -44 26 c-65 38 -97 45 -139 30z"/>
</g>
</svg>