<svg version="1.0" xmlns="http://www.w3.org/2000/svg"
 width="64.000000pt" height="54.000000pt" viewBox="0 0 64.000000 54.000000"
 preserveAspectRatio="xMidYMid meet" fill="currentColor">
<g transform="translate(0.000000,54.000000) scale(0.100000,-0.100000)" stroke="none">
<path d="M160 450 c0 -102 29 -142 109 -152 41 -5 48 -31 18 -68 l-27 -32 -44
47 -43 48 -57 -7 -57 -8 20 -31 c11 -18 33 -40 50 -51 30 -17 33 -17 57 -1 21
13 32 15 50 7 19 -9 22 -16 17 -45 -6 -41 13 -107 32 -107 26 0 40 32 37 87
-4 49 -1 56 31 88 39 39 67 44 124 20 20 -8 38 -13 40 -11 6 6 -50 43 -72 47
-14 3 -21 13 -23 37 -2 17 1 32 7 32 6 0 18 11 26 24 13 20 14 32 6 63 -6 21
-17 47 -24 57 -13 18 -16 17 -41 -20 -31 -46 -33 -82 -6 -117 30 -38 26 -63
-11 -71 -65 -13 -78 1 -53 59 17 42 9 62 -39 98 -30 24 -110 67 -122 67 -3 0
-5 -27 -5 -60z"/>
</g>
</svg>
