<svg version="1.0" xmlns="http://www.w3.org/2000/svg"
 width="64.000000pt" height="60.000000pt" viewBox="0 0 67.000000 81.000000"
 preserveAspectRatio="xMidYMid meet" fill="currentColor">
    <g transform="translate(0.000000,81.000000) scale(0.100000,-0.100000)" stroke="none">
    <path d="M296 585 c-53 -76 -60 -81 -85 -56 -24 24 -68 27 -95 6 -31 -23 -24
    -67 18 -116 39 -46 39 -54 3 -99 -16 -21 -28 -27 -45 -23 -24 6 -25 2 -22 -57
    3 -48 15 -60 66 -60 39 0 44 3 44 23 0 20 56 77 76 77 4 0 24 -16 45 -35 45
    -41 88 -46 119 -15 34 34 22 97 -22 113 -16 5 -18 3 65 61 59 42 67 51 67 80
    0 18 3 61 6 95 l7 61 -105 0 -105 0 -37 -55z"/>
    </g>
</svg>
